HIERARCHY
ROOT Hips
{
	OFFSET 0.000000 0.000000 0.000000
	CHANNELS 6 Xposition Yposition Zposition Zrotation Yrotation Xrotation 
	JOINT LHipJoint
	{
		OFFSET 0.000000 0.000000 0.000000
		CHANNELS 3 Zrotation Yrotation Xrotation
		JOINT LeftUpLeg
		{
			OFFSET 1.363060 -1.794630 0.839290
			CHANNELS 3 Zrotation Yrotation Xrotation
			JOINT LeftLeg
			{
				OFFSET 2.448110 -6.726130 0.000000
				CHANNELS 3 Zrotation Yrotation Xrotation
				JOINT LeftFoot
				{
					OFFSET 2.562200 -7.039590 0.000000
					CHANNELS 3 Zrotation Yrotation Xrotation
					JOINT LeftToeBase
					{
						OFFSET 0.157640 -0.433110 2.322550
						CHANNELS 3 Zrotation Yrotation Xrotation
						End Site
						{
							OFFSET 0.000000 0.000000 0.000000
						}
					}
				}
			}
		}
	}
	JOINT RHipJoint
	{
		OFFSET 0.000000 0.000000 0.000000
		CHANNELS 3 Zrotation Yrotation Xrotation
		JOINT RightUpLeg
		{
			OFFSET -1.305520 -1.794630 0.839290
			CHANNELS 3 Zrotation Yrotation Xrotation
			JOINT RightLeg
			{
				OFFSET -2.542530 -6.985550 0.000000
				CHANNELS 3 Zrotation Yrotation Xrotation
				JOINT RightFoot
				{
					OFFSET -2.568260 -7.056230 0.000000
					CHANNELS 3 Zrotation Yrotation Xrotation
					JOINT RightToeBase
					{
						OFFSET -0.164730 -0.452590 2.363150
						CHANNELS 3 Zrotation Yrotation Xrotation
						End Site
						{
							OFFSET 0.000000 0.000000 0.000000
						}
					}
				}
			}
		}
	}
}
MOTION
Frames: 30
Frame Time: 0.008333
-3.834829 17.624888 -0.402187 -171.406547 81.115339 -153.449071 -9.717103 0.860662 3.385625 -16.545487 -5.827650 -33.783898 -1.925083 -0.509278 14.908572 2.926525 14.574887 -7.093536 0.856600 0.000000 -30.228600 9.016944 -3.431507 -1.157035 8.089745 -7.621259 -4.847625 1.239851 -1.456125 19.001351 -0.383309 -2.140562 16.348150 -1.135800 0.000001 -71.425200
-3.601395 17.668246 -0.460706 -170.531348 80.640752 -152.926990 -9.838339 0.950099 3.274861 -17.105879 -4.600011 -33.112440 -2.069444 -0.649804 12.127593 2.550161 13.555237 -4.198407 1.550900 0.000001 -33.412300 9.014420 -3.527524 -1.210035 8.092539 -7.917551 -4.457494 1.111649 -1.571669 19.987674 -0.455339 -2.366020 17.655375 -1.227400 -0.000001 -70.499100
-3.370727 17.699835 -0.519783 -169.700019 80.146143 -152.475691 -9.969231 1.047509 3.101078 -17.736211 -3.204616 -32.620788 -2.220794 -0.719565 10.058813 2.183326 12.434517 -1.557169 2.047500 -0.000000 -36.112900 9.007596 -3.600621 -1.251349 8.126311 -8.132886 -4.199477 0.972030 -1.685947 21.332918 -0.565674 -2.925362 18.349791 -1.453400 -0.000000 -69.369600
-3.143061 17.719596 -0.578981 -169.011347 79.633430 -152.184154 -10.092975 1.148755 2.892260 -18.389485 -1.792538 -32.263174 -2.362817 -0.732109 8.654114 1.857930 11.327432 0.715308 2.351700 0.000000 -38.134800 9.003822 -3.645746 -1.296495 8.163874 -8.305803 -4.065709 0.820802 -1.799184 22.999907 -0.711793 -3.812458 18.486244 -1.811800 -0.000000 -68.132700
-2.918427 17.727441 -0.638134 -168.489526 79.106334 -152.065559 -10.200245 1.246522 2.677300 -19.001491 -0.507998 -31.980694 -2.477777 -0.703561 7.834265 1.598782 10.359433 2.523218 2.502800 0.000001 -39.321400 9.006109 -3.660438 -1.357978 8.189906 -8.463672 -4.046665 0.659816 -1.911571 24.942404 -0.892766 -5.000047 18.143893 -2.278200 0.000000 -66.857100
-2.696762 17.723170 -0.697211 -168.113978 78.571001 -152.090450 -10.287547 1.332630 2.480165 -19.510504 0.534479 -31.712387 -2.551816 -0.649620 7.508340 1.420273 9.639069 3.794622 2.555300 -0.000000 -39.570900 9.015055 -3.644547 -1.444647 8.195514 -8.625676 -4.132508 0.492657 -2.023535 27.112076 -1.106770 -6.436768 17.410018 -2.810800 0.000000 -65.538200
-2.477816 17.706625 -0.756221 -167.847244 78.036146 -152.214182 -10.354524 1.400282 2.317621 -19.873380 1.260346 -31.408936 -2.578120 -0.583523 7.591500 1.326702 9.235648 4.480344 2.557200 0.000000 -38.834300 9.030579 -3.600075 -1.560476 8.173411 -8.804042 -4.316862 0.323595 -2.135764 29.463462 -1.349484 -8.051743 16.371606 -3.358400 0.000000 -64.122400
-2.261234 17.677615 -0.815240 -167.648667 77.512583 -152.389343 -10.402095 1.445168 2.198035 -20.073479 1.639919 -31.044983 -2.557567 -0.514557 8.020119 1.314671 9.167092 4.550706 2.532900 -0.000001 -37.106100 9.052540 -3.530992 -1.703462 8.117307 -9.001183 -4.597983 0.156309 -2.248918 31.953525 -1.614100 -9.767919 15.118124 -3.872799 0.000000 -62.627900
-2.046553 17.636111 -0.874251 -167.495141 77.013395 -152.584674 -10.430270 1.465625 2.124960 -20.119256 1.669794 -30.616569 -2.496370 -0.448782 8.744921 1.378053 9.416111 4.001732 2.481699 -0.000000 -34.434401 9.082079 -3.441815 -1.867296 8.017612 -9.212973 -4.982961 -0.006389 -2.363699 34.548936 -1.890246 -11.501213 13.725750 -4.311099 -0.000000 -61.053901
-1.833248 17.582250 -0.933088 -167.386623 76.553434 -152.790335 -10.437415 1.462602 2.098152 -20.041671 1.366999 -30.136304 -2.404463 -0.389542 9.726681 1.510342 9.941958 2.855822 2.382300 -0.000000 -30.918800 9.122214 -3.336853 -2.041978 7.859960 -9.427482 -5.486184 -0.162776 -2.480776 37.226672 -2.164866 -13.166871 12.252123 -4.638800 -0.000000 -59.391800
-1.620847 17.516219 -0.991699 -167.301252 76.140630 -152.972597 -10.424906 1.440543 2.107671 -19.890200 0.808941 -29.670206 -2.297554 -0.332230 10.990211 1.697939 10.637791 1.139075 2.185000 -0.000000 -26.684700 9.173305 -3.222659 -2.210635 7.647777 -9.622337 -6.131475 -0.311814 -2.599786 39.969698 -2.424725 -14.694372 10.741589 -4.836101 -0.000000 -57.660301
-1.408936 17.438570 -1.049726 -167.249865 75.783316 -153.132184 -10.392931 1.404586 2.143629 -19.714782 0.065913 -29.271925 -2.189352 -0.272022 12.544782 1.930450 11.421227 -1.088105 1.849901 0.000000 -21.924301 9.238010 -3.103275 -2.358362 7.377557 -9.773641 -6.938586 -0.453799 -2.720361 42.763195 -2.657651 -16.024281 9.230035 -4.895400 0.000000 -55.926000
-1.197100 17.350230 -1.106750 -167.262329 75.488538 -153.284905 -10.341148 1.360908 2.199112 -19.562612 -0.801204 -28.984899 -2.090767 -0.205089 14.372083 2.199130 12.237774 -3.721986 1.358501 -0.000000 -16.946300 9.320231 -2.981218 -2.469818 7.045343 -9.850899 -7.929044 -0.589152 -2.842023 45.594914 -2.853715 -17.109881 7.728991 -4.816000 0.000001 -54.197900
-0.985193 17.252373 -1.162494 -167.334930 75.251980 -153.418691 -10.274948 1.316575 2.260321 -19.469566 -1.694654 -28.872358 -2.012026 -0.122265 16.495655 2.488133 13.005996 -6.660308 0.702500 -0.000000 -12.057100 9.419380 -2.859975 -2.530712 6.667278 -9.826798 -9.116905 -0.718483 -2.963711 48.446383 -3.007334 -17.929740 6.251539 -4.612000 0.000000 -52.533100
-0.773241 17.146523 -1.216642 -167.469466 75.063806 -153.531066 -10.200627 1.277464 2.316981 -19.453513 -2.539145 -28.968052 -1.957559 -0.017066 18.905529 2.782818 13.678406 -9.780438 -0.095400 -0.000000 -7.575500 9.534081 -2.741372 -2.532309 6.259960 -9.680662 -10.503296 -0.842407 -3.084655 51.292399 -3.116776 -18.480197 4.804133 -4.304000 -0.000000 -50.986200
-0.561406 17.034717 -1.268991 -167.667344 74.912764 -153.623598 -10.124959 1.248185 2.360686 -19.520067 -3.276521 -29.279832 -1.927152 0.114107 21.566461 3.069489 14.229949 -12.957916 -0.991900 0.000000 -3.744600 9.661882 -2.625661 -2.471268 5.838060 -9.399219 -12.079028 -0.961378 -3.204406 54.102463 -3.182823 -18.767889 3.388996 -3.915700 0.000001 -49.549600
-0.349817 16.919333 -1.319466 -167.931781 74.783494 -153.699231 -10.053444 1.231382 2.389342 -19.662300 -3.879763 -29.791628 -1.916114 0.269778 24.409229 3.337940 14.659403 -16.076426 -1.932700 -0.000000 -0.708200 9.799374 -2.511791 -2.347949 5.415499 -8.977047 -13.830039 -1.075762 -3.322227 56.841290 -3.209552 -18.816460 2.008084 -3.474400 0.000001 -48.244600
-0.139357 16.803006 -1.368182 -168.249986 74.652069 -153.770524 -9.993085 1.225877 2.394150 -19.860183 -4.325203 -30.438010 -1.918174 0.445736 27.346062 3.578275 14.966371 -19.046765 177.133300 0.000000 -1.515200 9.940221 -2.397984 -2.175959 5.004288 -8.430591 -15.699814 -1.185233 -3.438495 59.458933 -3.202925 -18.661663 0.672220 -3.009400 -0.000001 -47.107100
0.069472 16.688736 -1.415325 -168.629208 74.501043 -153.863257 -9.946250 1.230125 2.372421 -20.097027 -4.617248 -31.140716 -1.927135 0.632830 30.263213 3.785879 15.168284 -21.794069 176.251000 0.000000 -2.974501 10.079985 -2.280990 -1.968997 4.604739 -7.779771 -17.640761 -1.289032 -3.553020 61.911190 -3.168981 -18.338772 -0.614327 -2.543199 -0.000000 -46.105100
0.276111 16.579610 -1.461354 -169.070386 74.312533 -154.002887 -9.913859 1.241482 2.321503 -20.354461 -4.768479 -31.808900 -1.938746 0.820277 33.045211 3.958168 15.280451 -24.269054 175.452600 -0.000000 -3.768300 10.213730 -2.157897 -1.743672 4.215728 -7.053151 -19.597902 -1.385778 -3.665359 64.154597 -3.114457 -17.889096 -1.842582 -2.095900 0.000000 -45.230200
0.481879 16.477566 -1.508964 -169.307818 74.083602 -153.904390 -9.916755 1.252250 2.252923 -20.537616 -4.742016 -32.487626 -1.949607 1.000333 35.656924 4.087473 15.263851 -26.478283 174.763600 0.000000 -3.995101 10.317434 -2.038705 -1.481418 3.944257 -6.201345 -21.600071 -1.474342 -3.766345 66.167635 -3.052694 -17.392870 -3.001600 -1.688700 0.000000 -44.452000
0.683122 16.387168 -1.555094 -169.823932 73.778471 -154.153225 -9.913925 1.269155 2.144261 -20.765530 -4.669501 -32.845918 -1.963144 1.157238 37.870304 4.187661 15.226212 -28.346219 174.186100 0.000000 -3.818300 10.422443 -1.898576 -1.263620 3.589087 -5.409717 -23.451087 -1.550598 -3.869341 67.890138 -2.977432 -16.817049 -4.087280 -1.317200 -0.000000 -43.765800
0.884670 16.308228 -1.599895 -170.629597 73.421308 -154.662999 -9.889815 1.300006 2.044841 -21.060213 -4.610455 -33.009307 -1.980510 1.280894 39.671598 4.268563 15.167050 -29.898051 173.714900 0.000000 -3.367000 10.535046 -1.740998 -1.040500 3.150502 -4.642184 -25.314290 -1.615686 -3.969891 69.373613 -2.896354 -16.199396 -5.121756 -0.981500 -0.000000 -43.137800
1.081096 16.245252 -1.649640 -171.199843 72.981081 -155.061979 -9.906074 1.318069 1.891989 -21.208980 -4.418284 -32.805339 -2.003192 1.375431 41.025461 4.303736 15.007055 -31.164653 173.369000 0.000000 -2.705100 10.598907 -1.582395 -0.873780 2.817839 -3.898347 -26.925298 -1.661467 -4.057065 70.494428 -2.820472 -15.624759 -6.044035 -0.702300 -0.000000 -42.557900
1.275170 16.197822 -1.703038 -171.721729 72.460417 -155.466230 -9.934754 1.333771 1.731906 -21.272276 -4.221298 -32.294544 -2.031209 1.434410 41.913437 4.308661 14.789495 -32.148575 173.136200 -0.000000 -1.943800 10.633346 -1.416843 -0.743469 2.532087 -3.212539 -28.398112 -1.687617 -4.130601 71.304019 -2.750769 -15.089767 -6.882362 -0.466000 0.000000 -42.006600
1.468473 16.166163 -1.760866 -172.188726 71.864477 -155.861287 -9.972354 1.349167 1.578193 -21.247441 -4.049212 -31.482457 -2.065295 1.456457 42.330934 4.285681 14.514436 -32.864325 173.011400 -0.000000 -1.155801 10.639281 -1.247166 -0.645842 2.294596 -2.599018 -29.738079 -1.691490 -4.188176 71.805039 -2.688021 -14.596047 -7.649176 -0.264900 0.000001 -41.468500
1.661358 16.150054 -1.824093 -172.512797 71.220720 -156.144765 -10.023560 1.361030 1.436940 -21.109872 -3.900174 -30.420142 -2.103256 1.443556 42.310881 4.235405 14.180172 -33.325015 172.990399 0.000000 -0.367099 10.611759 -1.077534 -0.568316 2.136441 -2.022039 -30.972981 -1.672816 -4.226709 72.010565 -2.635858 -14.161291 -8.343505 -0.096000 0.000000 -40.950300
1.854945 16.148866 -1.892902 -172.694366 70.548508 -156.304102 -10.086308 1.370597 1.315985 -20.865674 -3.783876 -29.145744 -2.142549 1.398176 41.886092 4.159636 13.792901 -33.535128 -6.933200 0.000000 -0.418500 10.552767 -0.910877 -0.500765 2.055779 -1.471183 -32.121139 -1.630790 -4.245173 71.928584 -2.593929 -13.778661 -8.975145 0.047100 0.000000 -40.458399
2.050343 16.161791 -1.967415 -172.733694 69.865732 -156.324530 -10.159955 1.379139 1.221839 -20.520713 -3.703828 -27.710458 -2.179218 1.324399 41.105057 4.059702 13.360897 -33.494859 -6.766500 -0.000000 -1.232999 10.463887 -0.750304 -0.431845 2.052596 -0.932612 -33.202632 -1.565127 -4.242531 71.564269 -2.561695 -13.439893 -9.549963 0.168600 0.000000 -40.007301
2.248500 16.187841 -2.047542 -172.638685 69.189697 -156.201385 -10.244211 1.388603 1.157449 -20.085541 -3.653090 -26.166758 -2.208862 1.227416 40.023784 3.936616 12.894822 -33.199589 -6.517000 -0.000000 -2.135000 10.347218 -0.598837 -0.350680 2.122497 -0.391690 -34.232990 -1.475968 -4.218169 70.917666 -2.538132 -13.134259 -10.068320 0.270600 0.000000 -39.618800
